<svg width="34" height="34" viewBox="0 0 34 34" fill="none" xmlns="http://www.w3.org/2000/svg">
<path d="M17 0.75C8.03984 0.75 0.75 8.03984 0.75 17C0.75 25.9602 8.03984 33.25 17 33.25C25.9602 33.25 33.25 25.9602 33.25 17C33.25 8.03984 25.9602 0.75 17 0.75ZM17 27C15.3672 27 14.0688 26.3078 13.8945 24.8453C13.8899 24.8016 13.8946 24.7574 13.9082 24.7156C13.9218 24.6738 13.9441 24.6354 13.9736 24.6028C14.0031 24.5702 14.0391 24.5442 14.0793 24.5265C14.1196 24.5088 14.1631 24.4998 14.207 24.5H19.7891C19.8335 24.4997 19.8774 24.5088 19.918 24.5268C19.9586 24.5448 19.9949 24.5712 20.0244 24.6044C20.054 24.6375 20.0762 24.6765 20.0895 24.7189C20.1028 24.7612 20.1069 24.8059 20.1016 24.85C19.9023 26.2852 18.6156 27 17 27ZM24.6562 23.25H9.34375C8.41875 23.25 7.9375 22.0781 8.46953 21.4531C9.74531 19.9422 10.6469 19.307 10.6469 15.1406C10.6469 11.3227 12.6578 9.96797 14.3187 9.30703C14.4331 9.2594 14.5361 9.18835 14.6213 9.09846C14.7065 9.00858 14.7719 8.90185 14.8133 8.78516C15.1016 7.82813 15.9172 7 17 7C18.0828 7 18.8969 7.82812 19.1875 8.78594C19.2292 8.90261 19.2948 9.0093 19.3801 9.09917C19.4653 9.18904 19.5685 9.2601 19.6828 9.30781C21.3398 9.96719 23.3547 11.3242 23.3547 15.1414C23.3547 19.3078 24.2555 19.943 25.5312 21.4539C26.0578 22.0781 25.5758 23.25 24.6562 23.25Z" fill="#475569"/>
</svg>
