<svg width="14" height="14" viewBox="0 0 14 14" fill="none" xmlns="http://www.w3.org/2000/svg">
<path d="M8.59289 7L13.046 2.54687C13.2574 2.3359 13.3762 2.04962 13.3765 1.75099C13.3768 1.45237 13.2584 1.16587 13.0474 0.95453C12.8364 0.743185 12.5502 0.624305 12.2515 0.624041C11.9529 0.623778 11.6664 0.742152 11.4551 0.953123L7.00195 5.40625L2.54883 0.953123C2.33748 0.741779 2.05084 0.623047 1.75195 0.623047C1.45307 0.623047 1.16642 0.741779 0.955077 0.953123C0.743732 1.16447 0.625 1.45111 0.625 1.75C0.625 2.04888 0.743732 2.33553 0.955077 2.54687L5.4082 7L0.955077 11.4531C0.743732 11.6645 0.625 11.9511 0.625 12.25C0.625 12.5489 0.743732 12.8355 0.955077 13.0469C1.16642 13.2582 1.45307 13.3769 1.75195 13.3769C2.05084 13.3769 2.33748 13.2582 2.54883 13.0469L7.00195 8.59375L11.4551 13.0469C11.6664 13.2582 11.9531 13.3769 12.252 13.3769C12.5508 13.3769 12.8375 13.2582 13.0488 13.0469C13.2602 12.8355 13.3789 12.5489 13.3789 12.25C13.3789 11.9511 13.2602 11.6645 13.0488 11.4531L8.59289 7Z" fill="#475569"/>
</svg>
