<svg width="18" height="18" viewBox="0 0 18 18" fill="none" xmlns="http://www.w3.org/2000/svg">
<path d="M2.41762 13.8438C2.4641 13.6727 2.36137 13.4348 2.26332 13.2633C2.23279 13.2121 2.19967 13.1626 2.1641 13.1148C1.32319 11.8396 0.874985 10.3455 0.875038 8.81797C0.861367 4.4332 4.4973 0.875 8.9934 0.875C12.9145 0.875 16.1875 3.59141 16.9524 7.19727C17.067 7.73187 17.1248 8.27708 17.125 8.82383C17.125 13.2148 13.6293 16.8289 9.13324 16.8289C8.4184 16.8289 7.45355 16.6492 6.92738 16.502C6.40121 16.3547 5.87582 16.1594 5.74027 16.107C5.60164 16.0537 5.45442 16.0263 5.3059 16.0262C5.14368 16.0256 4.98302 16.0578 4.83363 16.1211L2.18402 17.0773C2.12598 17.1024 2.06447 17.1184 2.0016 17.125C1.95199 17.1249 1.9029 17.1149 1.85718 17.0956C1.81146 17.0763 1.77001 17.0482 1.73524 17.0128C1.70047 16.9774 1.67307 16.9355 1.65462 16.8894C1.63618 16.8434 1.62705 16.7941 1.62777 16.7445C1.63103 16.701 1.63889 16.6579 1.65121 16.616L2.41762 13.8438Z" stroke="#475569" stroke-miterlimit="10" stroke-linecap="round"/>
</svg>
