<svg width="34" height="34" viewBox="0 0 34 34" fill="none" xmlns="http://www.w3.org/2000/svg">
<path d="M17 0.75C8.03984 0.75 0.75 8.03984 0.75 17C0.75 25.9602 8.03984 33.25 17 33.25C25.9602 33.25 33.25 25.9602 33.25 17C33.25 8.03984 25.9602 0.75 17 0.75ZM25.457 11.5539L14.957 24.0539C14.8419 24.1911 14.6985 24.3019 14.5368 24.3789C14.375 24.4559 14.1986 24.4972 14.0195 24.5H13.9984C13.8232 24.4999 13.65 24.463 13.49 24.3917C13.3299 24.3204 13.1867 24.2162 13.0695 24.0859L8.56953 19.0859C8.45525 18.9647 8.36635 18.8219 8.30805 18.6658C8.24976 18.5098 8.22325 18.3436 8.23008 18.1772C8.23692 18.0107 8.27695 17.8473 8.34784 17.6965C8.41873 17.5458 8.51903 17.4107 8.64287 17.2993C8.7667 17.1878 8.91156 17.1023 9.06894 17.0476C9.22631 16.993 9.39302 16.9703 9.55927 16.981C9.72552 16.9917 9.88796 17.0355 10.037 17.1099C10.1861 17.1843 10.3188 17.2877 10.4273 17.4141L13.9656 21.3453L23.543 9.94609C23.7578 9.69772 24.0617 9.54386 24.3891 9.51777C24.7165 9.49169 25.0409 9.59547 25.2924 9.80669C25.5438 10.0179 25.7021 10.3196 25.7329 10.6465C25.7637 10.9735 25.6646 11.2994 25.457 11.5539Z" fill="#1D4ED8"/>
</svg>
